<svg width="48" height="48" viewBox="0 0 48 48" fill="none" xmlns="http://www.w3.org/2000/svg">
<g clip-path="url(#clip0_9_1119)">
<path d="M31.9004 0C37.5948 5.89688e-10 40.4421 0.000264532 42.6094 1.12598C44.4358 2.07473 45.9253 3.56419 46.874 5.39062C47.9997 7.55793 48 10.4052 48 16.0996V31.9004C48 37.5948 47.9997 40.4421 46.874 42.6094C45.9253 44.4358 44.4358 45.9253 42.6094 46.874C40.4421 47.9997 37.5948 48 31.9004 48H16.0996C10.4052 48 7.55793 47.9997 5.39062 46.874C3.56419 45.9253 2.07473 44.4358 1.12598 42.6094C0.000264532 40.4421 5.89688e-10 37.5948 0 31.9004V16.0996C5.89688e-10 10.4052 0.000264142 7.55793 1.12598 5.39062C2.07473 3.56419 3.56419 2.07473 5.39062 1.12598C7.55793 0.000264142 10.4052 5.89688e-10 16.0996 0H31.9004ZM29.9385 14.4082C28.403 14.247 26.8955 14.8452 25.6641 15.334C24.8824 15.6442 24.2115 15.9111 23.7148 15.9111C23.1498 15.9111 22.4596 15.6338 21.6865 15.3232C20.6757 14.9172 19.5228 14.4539 18.3213 14.4785C16.9495 14.5228 15.6122 14.9221 14.4404 15.6367C13.2687 16.3513 12.3021 17.3574 11.6348 18.5566C8.74403 23.5619 10.8997 30.9179 13.6689 34.9639C15.0545 36.945 16.6742 39.1584 18.793 39.0801C19.7541 39.0402 20.4362 38.7525 21.1406 38.4561C21.9558 38.113 22.8011 37.7579 24.1436 37.7578C25.4095 37.7578 26.2188 38.1019 26.9951 38.4326C27.7394 38.7497 28.4536 39.0537 29.5117 39.0293C31.7366 38.9932 33.1386 37.04 34.4756 35.04C35.4711 33.6284 36.2369 32.0679 36.7451 30.417C35.4526 29.8703 34.3492 28.9554 33.5732 27.7861C32.7972 26.6167 32.3833 25.2443 32.3818 23.8408C32.3979 22.5931 32.7288 21.3694 33.3447 20.2842C33.9606 19.1991 34.8414 18.2873 35.9043 17.6338C35.2291 16.6696 34.3382 15.8763 33.3027 15.3164C32.2672 14.7566 31.1151 14.4451 29.9385 14.4082ZM29.9639 6.53027C28.1106 6.725 26.3984 7.6104 25.1689 9.01074C24.568 9.69475 24.1078 10.4906 23.8145 11.3525C23.5211 12.2146 23.4009 13.1264 23.46 14.0352C24.3867 14.0446 25.3037 13.8443 26.1416 13.4482C26.9796 13.052 27.717 12.4704 28.2979 11.748C29.5109 10.2919 30.1085 8.41996 29.9639 6.53027Z" fill="#77301B"/>
</g>
<defs>
<clipPath id="clip0_9_1119">
<rect width="48" height="48" fill="white"/>
</clipPath>
</defs>
</svg>
