<svg width="48" height="48" viewBox="0 0 48 48" fill="none" xmlns="http://www.w3.org/2000/svg">
<path d="M31.9004 0C37.5948 5.89688e-10 40.4421 0.000264532 42.6094 1.12598C44.4358 2.07473 45.9253 3.56419 46.874 5.39062C47.9997 7.55793 48 10.4052 48 16.0996V31.9004C48 37.5948 47.9997 40.4421 46.874 42.6094C45.9253 44.4358 44.4358 45.9253 42.6094 46.874C40.4421 47.9997 37.5948 48 31.9004 48H28V30.667H33.333L34.4004 24H28V19.333C28.0001 17.4666 28.6668 16.0001 31.5996 16H34.667V9.86621C32.9337 9.59954 31.0663 9.33301 29.333 9.33301C23.8665 9.33314 20 12.6671 20 18.667V24H14V30.667H20V48H16.0996C10.4052 48 7.55793 47.9997 5.39062 46.874C3.56419 45.9253 2.07473 44.4358 1.12598 42.6094C0.000264532 40.4421 5.89688e-10 37.5948 0 31.9004V16.0996C5.89688e-10 10.4052 0.000264142 7.55793 1.12598 5.39062C2.07473 3.56419 3.56419 2.07473 5.39062 1.12598C7.55793 0.000264142 10.4052 5.89688e-10 16.0996 0H31.9004Z" fill="#77301B"/>
</svg>
