<svg width="48" height="48" viewBox="0 0 48 48" fill="none" xmlns="http://www.w3.org/2000/svg">
<mask id="path-1-inside-1_9_1124" fill="white">
<path d="M31.9004 0C37.5948 5.89688e-10 40.4421 0.000264532 42.6094 1.12598C44.4358 2.07473 45.9253 3.56419 46.874 5.39062C47.9997 7.55793 48 10.4052 48 16.0996V31.9004C48 37.5948 47.9997 40.4421 46.874 42.6094C45.9253 44.4358 44.4358 45.9253 42.6094 46.874C40.4421 47.9997 37.5948 48 31.9004 48H16.0996C10.4052 48 7.55793 47.9997 5.39062 46.874C3.56419 45.9253 2.07473 44.4358 1.12598 42.6094C0.000264532 40.4421 5.89688e-10 37.5948 0 31.9004V16.0996C5.89688e-10 10.4052 0.000264142 7.55793 1.12598 5.39062C2.07473 3.56419 3.56419 2.07473 5.39062 1.12598C7.55793 0.000264142 10.4052 5.89688e-10 16.0996 0H31.9004ZM24 8C17.7456 8.00001 12.3349 11.5855 9.70215 16.8145C8.61852 18.9744 8.00001 21.4182 8 24C8 26.5818 8.61851 29.0255 9.70215 31.1855C12.3349 36.4145 17.7455 40 24 40C28.3198 40 31.9416 38.5674 34.5889 36.124C37.6143 33.3386 39.3604 29.236 39.3604 24.3633C39.3603 23.2289 39.2584 22.138 39.0693 21.0908H24V27.2803H32.6113C32.2404 29.2802 31.1124 30.9749 29.418 32.1094C27.9853 33.0692 26.1526 33.6367 24 33.6367C19.8327 33.6367 16.3051 30.8219 15.0469 27.04C14.7269 26.0801 14.5459 25.0545 14.5459 24C14.5459 22.9455 14.7269 21.9199 15.0469 20.96C16.3051 17.1781 19.8327 14.3633 24 14.3633C26.3491 14.3633 28.458 15.1714 30.1162 16.7568L34.7051 12.167C31.9342 9.58537 28.3125 8 24 8Z"/>
</mask>
<path d="M31.9004 0C37.5948 5.89688e-10 40.4421 0.000264532 42.6094 1.12598C44.4358 2.07473 45.9253 3.56419 46.874 5.39062C47.9997 7.55793 48 10.4052 48 16.0996V31.9004C48 37.5948 47.9997 40.4421 46.874 42.6094C45.9253 44.4358 44.4358 45.9253 42.6094 46.874C40.4421 47.9997 37.5948 48 31.9004 48H16.0996C10.4052 48 7.55793 47.9997 5.39062 46.874C3.56419 45.9253 2.07473 44.4358 1.12598 42.6094C0.000264532 40.4421 5.89688e-10 37.5948 0 31.9004V16.0996C5.89688e-10 10.4052 0.000264142 7.55793 1.12598 5.39062C2.07473 3.56419 3.56419 2.07473 5.39062 1.12598C7.55793 0.000264142 10.4052 5.89688e-10 16.0996 0H31.9004ZM24 8C17.7456 8.00001 12.3349 11.5855 9.70215 16.8145C8.61852 18.9744 8.00001 21.4182 8 24C8 26.5818 8.61851 29.0255 9.70215 31.1855C12.3349 36.4145 17.7455 40 24 40C28.3198 40 31.9416 38.5674 34.5889 36.124C37.6143 33.3386 39.3604 29.236 39.3604 24.3633C39.3603 23.2289 39.2584 22.138 39.0693 21.0908H24V27.2803H32.6113C32.2404 29.2802 31.1124 30.9749 29.418 32.1094C27.9853 33.0692 26.1526 33.6367 24 33.6367C19.8327 33.6367 16.3051 30.8219 15.0469 27.04C14.7269 26.0801 14.5459 25.0545 14.5459 24C14.5459 22.9455 14.7269 21.9199 15.0469 20.96C16.3051 17.1781 19.8327 14.3633 24 14.3633C26.3491 14.3633 28.458 15.1714 30.1162 16.7568L34.7051 12.167C31.9342 9.58537 28.3125 8 24 8Z" fill="#77301B"/>
<path d="M31.9004 0V-0.5V0ZM42.6094 1.12598L42.8399 0.68227L42.8398 0.68226L42.6094 1.12598ZM46.874 5.39062L47.3177 5.16016L47.3177 5.16014L46.874 5.39062ZM48 16.0996H48.5H48ZM48 31.9004H48.5H48ZM46.874 42.6094L47.3177 42.8399L47.3177 42.8398L46.874 42.6094ZM42.6094 46.874L42.8398 47.3177L42.8399 47.3177L42.6094 46.874ZM31.9004 48V48.5V48ZM16.0996 48V48.5V48ZM5.39062 46.874L5.16014 47.3177L5.16016 47.3177L5.39062 46.874ZM1.12598 42.6094L0.68226 42.8398L0.68227 42.8399L1.12598 42.6094ZM0 31.9004H-0.5H0ZM0 16.0996H-0.5H0ZM1.12598 5.39062L0.68227 5.16014L0.682261 5.16016L1.12598 5.39062ZM5.39062 1.12598L5.16016 0.682261L5.16014 0.68227L5.39062 1.12598ZM16.0996 0V-0.5V0ZM24 8V7.5V8ZM9.70215 16.8145L9.25556 16.5896L9.25524 16.5902L9.70215 16.8145ZM8 24L7.5 24V24H8ZM9.70215 31.1855L9.25524 31.4098L9.25556 31.4104L9.70215 31.1855ZM24 40V40.5V40ZM34.5889 36.124L34.2502 35.7562L34.2497 35.7566L34.5889 36.124ZM39.3604 24.3633H39.8604V24.3633L39.3604 24.3633ZM39.0693 21.0908L39.5614 21.002L39.4871 20.5908H39.0693V21.0908ZM24 21.0908V20.5908H23.5V21.0908H24ZM24 27.2803H23.5V27.7803H24V27.2803ZM32.6113 27.2803L33.1029 27.3715L33.2126 26.7803H32.6113V27.2803ZM29.418 32.1094L29.1398 31.6939L29.1397 31.694L29.418 32.1094ZM24 33.6367L24 34.1367H24V33.6367ZM15.0469 27.04L15.5213 26.8822L15.5212 26.8819L15.0469 27.04ZM14.5459 24L14.0459 24V24H14.5459ZM15.0469 20.96L15.5212 21.1181L15.5213 21.1178L15.0469 20.96ZM24 14.3633V13.8633H24L24 14.3633ZM30.1162 16.7568L29.7707 17.1182L30.1241 17.4561L30.4698 17.1104L30.1162 16.7568ZM34.7051 12.167L35.0587 12.5205L35.4249 12.1542L35.0459 11.8012L34.7051 12.167ZM31.9004 0V0.5C34.756 0.5 36.8671 0.500468 38.5362 0.63913C40.1992 0.777294 41.3785 1.05007 42.3789 1.56969L42.6094 1.12598L42.8398 0.68226C41.6729 0.0761669 40.345 -0.214041 38.619 -0.357437C36.8989 -0.500336 34.7392 -0.5 31.9004 -0.5V0ZM42.6094 1.12598L42.3789 1.56968C44.114 2.471 45.529 3.886 46.4303 5.62111L46.874 5.39062L47.3177 5.16014C46.3215 3.24238 44.7576 1.67846 42.8399 0.68227L42.6094 1.12598ZM46.874 5.39062L46.4303 5.62109C46.9499 6.6215 47.2227 7.80079 47.3609 9.46384C47.4995 11.1329 47.5 13.244 47.5 16.0996H48H48.5C48.5 13.2608 48.5003 11.1011 48.3574 9.38105C48.214 7.65504 47.9238 6.32705 47.3177 5.16016L46.874 5.39062ZM48 16.0996H47.5V31.9004H48H48.5V16.0996H48ZM48 31.9004H47.5C47.5 34.756 47.4995 36.8671 47.3609 38.5362C47.2227 40.1992 46.9499 41.3785 46.4303 42.3789L46.874 42.6094L47.3177 42.8398C47.9238 41.6729 48.214 40.345 48.3574 38.619C48.5003 36.8989 48.5 34.7392 48.5 31.9004H48ZM46.874 42.6094L46.4303 42.3789C45.529 44.114 44.114 45.529 42.3789 46.4303L42.6094 46.874L42.8399 47.3177C44.7576 46.3215 46.3215 44.7576 47.3177 42.8399L46.874 42.6094ZM42.6094 46.874L42.3789 46.4303C41.3785 46.9499 40.1992 47.2227 38.5362 47.3609C36.8671 47.4995 34.756 47.5 31.9004 47.5V48V48.5C34.7392 48.5 36.8989 48.5003 38.619 48.3574C40.345 48.214 41.6729 47.9238 42.8398 47.3177L42.6094 46.874ZM31.9004 48V47.5H16.0996V48V48.5H31.9004V48ZM16.0996 48V47.5C13.244 47.5 11.1329 47.4995 9.46384 47.3609C7.80079 47.2227 6.6215 46.9499 5.62109 46.4303L5.39062 46.874L5.16016 47.3177C6.32705 47.9238 7.65504 48.214 9.38105 48.3574C11.1011 48.5003 13.2608 48.5 16.0996 48.5V48ZM5.39062 46.874L5.62111 46.4303C3.886 45.529 2.471 44.114 1.56968 42.3789L1.12598 42.6094L0.68227 42.8399C1.67846 44.7576 3.24238 46.3215 5.16014 47.3177L5.39062 46.874ZM1.12598 42.6094L1.56969 42.3789C1.05007 41.3785 0.777294 40.1992 0.63913 38.5362C0.500468 36.8671 0.5 34.756 0.5 31.9004H0H-0.5C-0.5 34.7392 -0.500336 36.8989 -0.357437 38.619C-0.214041 40.345 0.0761669 41.6729 0.68226 42.8398L1.12598 42.6094ZM0 31.9004H0.5V16.0996H0H-0.5V31.9004H0ZM0 16.0996H0.5C0.5 13.244 0.500468 11.1329 0.639129 9.46384C0.777294 7.80079 1.05007 6.6215 1.56969 5.62109L1.12598 5.39062L0.682261 5.16016C0.0761667 6.32705 -0.214042 7.65504 -0.357437 9.38105C-0.500336 11.1011 -0.5 13.2608 -0.5 16.0996H0ZM1.12598 5.39062L1.56968 5.62111C2.471 3.886 3.886 2.471 5.62111 1.56968L5.39062 1.12598L5.16014 0.68227C3.24238 1.67846 1.67846 3.24238 0.68227 5.16014L1.12598 5.39062ZM5.39062 1.12598L5.62109 1.56969C6.6215 1.05007 7.80079 0.777294 9.46384 0.639129C11.1329 0.500468 13.244 0.5 16.0996 0.5V0V-0.5C13.2608 -0.5 11.1011 -0.500336 9.38105 -0.357437C7.65504 -0.214042 6.32705 0.0761667 5.16016 0.682261L5.39062 1.12598ZM16.0996 0V0.5H31.9004V0V-0.5H16.0996V0ZM24 8V7.5C17.5494 7.50001 11.9699 11.1986 9.25556 16.5896L9.70215 16.8145L10.1487 17.0393C12.6999 11.9724 17.9417 8.50001 24 8.5V8ZM9.70215 16.8145L9.25524 16.5902C8.13793 18.8174 7.50001 21.3376 7.5 24L8 24L8.5 24C8.50001 21.4988 9.0991 19.1315 10.1491 17.0387L9.70215 16.8145ZM8 24H7.5C7.5 26.6624 8.13793 29.1826 9.25524 31.4098L9.70215 31.1855L10.1491 30.9613C9.09909 28.8685 8.5 26.5013 8.5 24H8ZM9.70215 31.1855L9.25556 31.4104C11.9699 36.8014 17.5493 40.5 24 40.5V40V39.5C17.9417 39.5 12.6999 36.0276 10.1487 30.9607L9.70215 31.1855ZM24 40V40.5C28.4344 40.5 32.1806 39.0273 34.928 36.4914L34.5889 36.124L34.2497 35.7566C31.7027 38.1076 28.2052 39.5 24 39.5V40ZM34.5889 36.124L34.9275 36.4919C38.0681 33.6005 39.8604 29.3582 39.8604 24.3633H39.3604H38.8604C38.8604 29.1138 37.1606 33.0767 34.2502 35.7562L34.5889 36.124ZM39.3604 24.3633L39.8604 24.3633C39.8603 23.1988 39.7557 22.0781 39.5614 21.002L39.0693 21.0908L38.5773 21.1797C38.7611 22.1978 38.8603 23.259 38.8604 24.3633L39.3604 24.3633ZM39.0693 21.0908V20.5908H24V21.0908V21.5908H39.0693V21.0908ZM24 21.0908H23.5V27.2803H24H24.5V21.0908H24ZM24 27.2803V27.7803H32.6113V27.2803V26.7803H24V27.2803ZM32.6113 27.2803L32.1197 27.1891C31.7737 29.0545 30.7241 30.6331 29.1398 31.6939L29.418 32.1094L29.6961 32.5248C31.5008 31.3166 32.7071 29.5059 33.1029 27.3715L32.6113 27.2803ZM29.418 32.1094L29.1397 31.694C27.7972 32.5934 26.0634 33.1367 24 33.1367V33.6367V34.1367C26.2418 34.1367 28.1734 33.5451 29.6963 32.5248L29.418 32.1094ZM24 33.6367L24 33.1367C20.0653 33.1367 16.7171 30.4766 15.5213 26.8822L15.0469 27.04L14.5724 27.1979C15.893 31.1672 19.6002 34.1367 24 34.1367L24 33.6367ZM15.0469 27.04L15.5212 26.8819C15.2171 25.9695 15.0459 24.9972 15.0459 24H14.5459H14.0459C14.0459 25.1118 14.2367 26.1907 14.5725 27.1981L15.0469 27.04ZM14.5459 24L15.0459 24C15.0459 23.0028 15.2171 22.0305 15.5212 21.1181L15.0469 20.96L14.5725 20.8019C14.2367 21.8093 14.0459 22.8882 14.0459 24L14.5459 24ZM15.0469 20.96L15.5213 21.1178C16.7171 17.5234 20.0653 14.8633 24 14.8633L24 14.3633L24 13.8633C19.6002 13.8633 15.893 16.8328 14.5724 20.8021L15.0469 20.96ZM24 14.3633V14.8633C26.2278 14.8633 28.2108 15.6268 29.7707 17.1182L30.1162 16.7568L30.4618 16.3954C28.7053 14.716 26.4703 13.8633 24 13.8633V14.3633ZM30.1162 16.7568L30.4698 17.1104L35.0587 12.5205L34.7051 12.167L34.3515 11.8135L29.7626 16.4033L30.1162 16.7568ZM34.7051 12.167L35.0459 11.8012C32.1861 9.13666 28.4439 7.5 24 7.5V8V8.5C28.1812 8.5 31.6823 10.0341 34.3642 12.5328L34.7051 12.167Z" fill="#1C2A3A" fill-opacity="0.15" mask="url(#path-1-inside-1_9_1124)"/>
</svg>
