<svg width="48" height="48" viewBox="0 0 48 48" fill="none" xmlns="http://www.w3.org/2000/svg">
<path d="M31.9004 0C37.5948 5.89688e-10 40.4421 0.000264532 42.6094 1.12598C44.4358 2.07473 45.9253 3.56419 46.874 5.39062C47.9997 7.55793 48 10.4052 48 16.0996V31.9004C48 37.5948 47.9997 40.4421 46.874 42.6094C45.9253 44.4358 44.4358 45.9253 42.6094 46.874C40.4421 47.9997 37.5948 48 31.9004 48H16.0996C10.4052 48 7.55793 47.9997 5.39062 46.874C3.56419 45.9253 2.07473 44.4358 1.12598 42.6094C0.000264532 40.4421 5.89688e-10 37.5948 0 31.9004V16.0996C5.89688e-10 10.4052 0.000264142 7.55793 1.12598 5.39062C2.07473 3.56419 3.56419 2.07473 5.39062 1.12598C7.55793 0.000264142 10.4052 5.89688e-10 16.0996 0H31.9004ZM7.14355 17.9844V40.8564H14.4033V17.9844H7.14355ZM32.6201 17.4004C27.5315 17.4004 25.6573 21.1357 25.6523 21.1455V17.9844H18.751V40.8564H26.0107V28.7334C26.0107 26.6713 26.593 23.7393 29.9922 23.7393C31.63 23.7393 33.7793 24.1823 33.7793 28.208V40.8564H40.9307V26.4639C40.9306 19.6391 37.1653 17.4004 32.6201 17.4004ZM10.7734 6.5791C8.47387 6.5791 6.6096 8.44267 6.60938 10.7422C6.60938 13.0419 8.47373 14.9062 10.7734 14.9062C13.0731 14.9062 14.9375 13.0419 14.9375 10.7422C14.9373 8.44269 13.073 6.57914 10.7734 6.5791Z" fill="#77301B"/>
</svg>
