<svg width="48" height="48" viewBox="0 0 48 48" fill="none" xmlns="http://www.w3.org/2000/svg">
<path d="M31.9004 0C37.5948 5.89688e-10 40.4421 0.000264532 42.6094 1.12598C44.4358 2.07473 45.9253 3.56419 46.874 5.39062C47.9997 7.55793 48 10.4052 48 16.0996V31.9004C48 37.5948 47.9997 40.4421 46.874 42.6094C45.9253 44.4358 44.4358 45.9253 42.6094 46.874C40.4421 47.9997 37.5948 48 31.9004 48H16.0996C10.4052 48 7.55793 47.9997 5.39062 46.874C3.56419 45.9253 2.07473 44.4358 1.12598 42.6094C0.000264532 40.4421 5.89688e-10 37.5948 0 31.9004V16.0996C5.89688e-10 10.4052 0.000264142 7.55793 1.12598 5.39062C2.07473 3.56419 3.56419 2.07473 5.39062 1.12598C7.55793 0.000264142 10.4052 5.89688e-10 16.0996 0H31.9004ZM30.9609 11.3662C27.4494 11.3664 24.6035 14.4461 24.6035 18.248C24.6035 18.7793 24.6591 19.3104 24.7676 19.8145C19.4847 19.5283 14.7984 16.7891 11.6641 12.6191C11.1137 13.6412 10.8008 14.8273 10.8008 16.0811C10.8009 18.4658 11.9239 20.5783 13.6318 21.8184C12.5892 21.7775 11.6069 21.4642 10.749 20.96V21.041C10.749 24.3797 12.9418 27.1602 15.8525 27.7871C15.3152 27.9506 14.7542 28.0322 14.1768 28.0322C13.7674 28.0322 13.3672 27.9909 12.9785 27.9092C13.7886 30.6347 16.1373 32.6378 18.9189 32.6787C16.7433 34.532 14.0003 35.6366 11.0225 35.6367C10.5097 35.6367 10.0041 35.5955 9.50684 35.541C12.3207 37.4896 15.6604 38.6338 19.252 38.6338C30.9443 38.6338 37.3387 28.1412 37.3389 19.0518C37.3389 18.752 37.3349 18.4521 37.3232 18.1523C38.5647 17.1849 39.6392 15.9719 40.4932 14.5957C39.355 15.1407 38.1275 15.5084 36.8408 15.6719C38.1561 14.827 39.1629 13.4782 39.6396 11.8701C38.4098 12.6605 37.0504 13.2324 35.5996 13.5322C34.4407 12.1968 32.789 11.3662 30.9609 11.3662Z" fill="#77301B"/>
</svg>
